<!DOCTYPE svg PUBLIC "-//W3C//DTD SVG 1.1//EN" "http://www.w3.org/Graphics/SVG/1.1/DTD/svg11.dtd">
<!-- Uploaded to: SVG Repo, www.svgrepo.com, Transformed by: SVG Repo Mixer Tools -->
<svg fill="#000000" height="64px" width="64px" version="1.1" id="Layer_1" xmlns="http://www.w3.org/2000/svg" xmlns:xlink="http://www.w3.org/1999/xlink" viewBox="0 0 512 512" xml:space="preserve">
<g id="SVGRepo_bgCarrier" stroke-width="0"/>
<g id="SVGRepo_tracerCarrier" stroke-linecap="round" stroke-linejoin="round"/>
<g id="SVGRepo_iconCarrier"> <g> <g> <path d="M492.973,163.748l-15.177-3.795V20.843c0-9.136-7.432-16.568-16.568-16.568h-17.102c-7.77,0-14.289,5.383-16.07,12.611 c-64.64,59.711-158.481,81.452-206.26,81.452H76.426c-17.403,0-32.377,10.585-38.831,25.653H25.119 C11.268,123.992,0,135.26,0,149.111v102.614c0,13.851,11.268,25.119,25.119,25.119h12.476 c6.454,15.068,21.428,25.653,38.831,25.653h2.032l39.439,189.306c-3.815,0.616-6.732,3.915-6.732,7.904 c0,4.427,3.589,8.017,8.017,8.017h111.165c4.427,0,8.017-3.589,8.017-8.017s-3.589-8.017-8.017-8.017h-2.032l-39.415-189.194 h32.896c47.78,0,141.62,21.741,206.26,81.452c1.781,7.228,8.3,12.611,16.07,12.611h17.102c9.136,0,16.568-7.432,16.568-16.568 v-139.11l15.177-3.795c11.203-2.8,19.027-12.821,19.027-24.369v-24.601C512,176.569,504.176,166.549,492.973,163.748z M34.219,260.81h-9.099c-5.01,0-9.086-4.076-9.086-9.086V149.111c0-5.01,4.076-9.086,9.086-9.086h9.099 c-0.002,0.178-0.014,0.355-0.014,0.534v119.716C34.205,260.455,34.216,260.632,34.219,260.81z M211.936,491.691h-77.685 L94.836,302.497h77.685L211.936,491.691z M205.228,286.464H76.426c-14.44,0-26.188-11.748-26.188-26.188V140.56 c0-14.44,11.748-26.188,26.188-26.188h128.802V286.464z M427.557,362.258c-27.461-22.565-61.377-41.422-99.126-55.012 c-36.689-13.207-75.556-20.782-106.636-20.782h-0.534V114.372h0.534c31.08,0,69.947-7.575,106.636-20.782 c37.749-13.59,71.665-32.446,99.126-55.012V362.258z M461.762,379.992c0,0.295-0.239,0.534-0.534,0.534h-17.102 c-0.295,0-0.534-0.239-0.534-0.534V20.843c0-0.295,0.239-0.534,0.534-0.534h17.102c0.295,0,0.534,0.239,0.534,0.534V379.992z M495.967,212.718c0,4.176-2.829,7.801-6.882,8.814l-11.29,2.822V176.48l11.29,2.822c4.052,1.013,6.882,4.638,6.882,8.815V212.718 z"/> </g> </g> </g>
</svg>